<?xml version="1.0" encoding="UTF-8" standalone="no"?>
<!-- Created with Inkscape (http://www.inkscape.org/) by Deni Symonds in 2007 symode09@hotmail.com -->

<svg
   xmlns:dc="http://purl.org/dc/elements/1.1/"
   xmlns:cc="http://creativecommons.org/ns#"
   xmlns:rdf="http://www.w3.org/1999/02/22-rdf-syntax-ns#"
   xmlns:svg="http://www.w3.org/2000/svg"
   xmlns="http://www.w3.org/2000/svg"
   xmlns:sodipodi="http://sodipodi.sourceforge.net/DTD/sodipodi-0.dtd"
   xmlns:inkscape="http://www.inkscape.org/namespaces/inkscape"
   width="522.48999"
   height="464.26999"
   id="svg2"
   sodipodi:version="0.32"
   inkscape:version="0.92.5 (2060ec1f9f, 2020-04-08)"
   version="1.0"
   sodipodi:docname="Tic_tac_toe_emty_board.svg"
   inkscape:output_extension="org.inkscape.output.svg.inkscape">
  <defs
     id="defs4" />
  <sodipodi:namedview
     id="base"
     pagecolor="#ffffff"
     bordercolor="#666666"
     borderopacity="1.0"
     gridtolerance="10000"
     guidetolerance="10"
     objecttolerance="10"
     inkscape:pageopacity="0.0"
     inkscape:pageshadow="2"
     inkscape:zoom="1"
     inkscape:cx="116.19556"
     inkscape:cy="300.93512"
     inkscape:document-units="px"
     inkscape:current-layer="layer1"
     width="522.49px"
     height="464.27px"
     inkscape:window-width="1920"
     inkscape:window-height="1031"
     inkscape:window-x="0"
     inkscape:window-y="25"
     showgrid="false"
     inkscape:snap-to-guides="true"
     inkscape:object-paths="false"
     showguides="true"
     inkscape:guide-bbox="true"
     inkscape:window-maximized="1" />
  <metadata
     id="metadata7">
    <rdf:RDF>
      <cc:Work
         rdf:about="">
        <dc:format>image/svg+xml</dc:format>
        <dc:type
           rdf:resource="http://purl.org/dc/dcmitype/StillImage" />
        <dc:title></dc:title>
      </cc:Work>
    </rdf:RDF>
  </metadata>
  <g
     inkscape:label="Layer 1"
     inkscape:groupmode="layer"
     id="layer1">
    <path
       id="path2221"
       style="fill:#b21f1f;fill-opacity:1;stroke:#160404;stroke-opacity:1"
       d="m 171.8125,43.166016 c -0.7533,0 -2.09976,0.461707 -2.91016,0.998046 -0.62196,0.411612 -1.95869,0.804582 -2.72265,0.800782 -0.60658,-0.0032 -1.34436,-0.243971 -2.94336,-0.962891 -2.71762,-1.22202 -3.87588,0.01475 -4.72656,5.050781 -1.614,9.55595 -1.61448,33.216226 -0.002,78.697266 0.21864,6.16616 0.48821,13.2738 0.59961,15.79492 0.11146,2.52132 0.17362,4.61555 0.13672,4.65235 -0.0369,0.0368 0.77369,8.94301 -0.0293,8.98046 -3.7624,0.17549 -7.93359,-0.004 -11.90039,-0.002 -2.29292,0.001 -4.58584,0.006 -6.87876,0.008 -1.3405,0.001 -2.68099,0.003 -4.02149,0.002 -0.875,-7.8e-4 -2.625,-0.006 -2.625,-0.006 l -23.89258,0.13867 c -29.928848,0.17237 -53.425676,0.77438 -65.494136,1.67969 -7.79982,0.58498 -8.832274,0.67897 -11.808594,1.06836 -6.46012,0.84504 -9.645259,1.75265 -11.068359,3.15625 -0.79878,0.78799 -0.86416,0.92979 -0.75586,1.59765 0.06534,0.40301 0.480368,1.36019 0.923828,2.12696 1.4781,2.55555 1.474632,3.25304 -0.03906,5.72851 -1.1006,1.8 -1.161684,2.36968 -0.333985,3.17969 1.209521,1.18378 3.601161,1.80128 10.181641,2.62891 4.84076,0.60877 12.987361,1.11416 22.800781,1.41406 25.7675,0.78754 28.59599,0.82235 70.566404,0.84375 26.07836,0.0134 35.88539,0.0789 35.93359,0.24023 0.0365,0.12212 0.30276,4.90709 0.5918,10.63281 0.28904,5.72572 1.10696,20.95112 1.81836,33.83399 1.306,23.65023 3.02294,55.91457 3.13086,58.8457 l 0.0586,1.58985 -6.80078,-0.0469 c -3.74,-0.026 -7.06841,-0.0864 -7.39844,-0.13477 -0.33,-0.0482 -12.66039,-0.23678 -27.40039,-0.41796 -42.573602,-0.52312 -78.646495,-0.20687 -93.300775,0.81836 -7.15836,0.5009 -9.644475,0.85609 -10.421875,1.48632 l -0.435547,0.35157 0.583985,0.41601 c 1.0478,0.74695 4.667808,1.58515 10.173828,2.35352 1.1,0.15355 2.9,0.42533 4,0.60351 2.41154,0.39079 7.38509,1.0142 10.40039,1.30469 1.21,0.11651 2.331828,0.25815 2.492188,0.31445 0.3336,0.11692 8.696041,0.97852 14.30664,1.47461 1.210001,0.10691 7.015391,0.6586 12.900391,1.22657 5.885,0.56797 12.051172,1.14661 13.701172,1.28515 4.76644,0.3998 40.317283,3.26872 43.298823,3.49414 3.0156,0.22803 15.1839,1.11171 19.5,1.41602 1.54,0.10851 3.97039,0.28447 5.40039,0.39258 1.43,0.10811 4.17027,0.28868 6.08985,0.40039 1.91958,0.11171 3.55411,0.27101 3.63281,0.35351 0.38828,0.40701 0.88483,20.46006 1.17969,47.69727 0.3488,32.22159 0.89379,46.42169 2.41015,62.86328 1.54756,16.78 4.49085,33.08366 6.80078,37.66406 1.14636,2.2732 1.79473,1.25086 2.17969,-3.43164 0.11314,-1.3763 0.34001,-9.21281 0.50391,-17.41601 0.51204,-25.6288 0.90327,-34.89613 3.0039,-71.07227 1.14842,-19.77735 1.82047,-32.53553 2.19141,-41.64063 0.50428,-12.37855 0.54869,-13.41406 0.58399,-13.41406 0.0188,0 5.566,0.36987 12.32812,0.82032 21.39806,1.42543 22.41283,1.49043 49.19531,3.14648 12.595,0.77858 24.38618,1.51249 26.20117,1.63281 4.63248,0.3073 16.08682,0.95959 21.19922,1.20703 6.5094,0.31532 20.97561,1.18623 22.03321,1.32618 0.6938,0.0917 1.08423,0.2839 1.51953,0.75 l 0.58594,0.62695 0.34179,5.50586 c 1.5671,25.24462 4.6304,51.67879 8.4336,72.77343 4.7831,26.53008 10.74434,46.65703 15.33984,51.79883 0.6635,0.7423 1.82729,1.20768 2.61719,1.04688 0.6105,-0.1243 2.01352,-0.99671 2.82812,-1.75781 0.22,-0.2054 0.75536,-0.5553 1.18946,-0.7793 0.8193,-0.4226 1.74942,-0.4228 4.42382,0 1.5204,0.2402 2.20083,-0.0124 2.73633,-1.01563 0.4269,-0.8004 0.4501,-1.05941 0.4336,-4.84961 -0.0229,-5.2558 -0.16918,-6.38711 -3.76368,-29.22851 -4.2962,-27.30044 -6.36419,-42.45447 -8.21289,-60.16016 -0.8482,-8.12371 -1.28045,-12.50203 -1.23632,-12.54883 -0.0306,-0.6055 -0.74421,-6.37697 -0.72461,-6.26171 l -0.32422,-5.15821 c -0.13811,-1.76553 -0.22249,-5.08549 -0.27539,-6.01172 -0.0726,-1.26982 0.15893,-2.9731 0.6875,-3.07422 l 2.26757,-0.20312 2.09961,0.10938 c 1.155,0.0602 4.305,0.20439 7,0.32031 2.695,0.11591 6.47539,0.3012 8.40039,0.41211 4.6566,0.26827 19.36391,0.93148 26.09961,1.17773 2.97,0.10871 6.83961,0.28758 8.59961,0.39649 1.76,0.10891 5.85461,0.29113 9.09961,0.40625 3.245,0.11531 6.845,0.25925 8,0.31835 5.9498,0.30411 18.8129,0.7324 35.5,1.18165 45.3444,1.22042 65.43813,0.3288 68.39453,-3.03516 0.7428,-0.84504 0.65477,-1.69275 -0.39453,-3.82227 -1.219,-2.47388 -1.20113,-2.90283 0.20117,-5.13867 1.8577,-2.96196 1.50291,-3.75994 -2.21289,-4.97656 -0.8732,-0.28588 -1.94671,-0.57754 -2.38672,-0.64844 -0.43997,-0.0709 -1.07039,-0.20397 -1.40039,-0.29687 -1.9981,-0.56297 -6.67019,-1.16954 -16.90039,-2.19336 -6.374,-0.63804 -12.34548,-1.09782 -23.19922,-1.78711 -1.925,-0.12212 -4.71617,-0.30971 -6.20117,-0.41602 -1.485,-0.1065 -4.5438,-0.28593 -6.79883,-0.39843 -2.25499,-0.11233 -5.58539,-0.30065 -7.40039,-0.41797 -1.815,-0.11712 -5.14539,-0.28836 -7.40039,-0.38086 -4.5002,-0.18479 -19.41881,-0.87054 -26.19922,-1.20508 -2.365,-0.11671 -7.27039,-0.29995 -10.90039,-0.40625 -3.63,-0.10631 -7.09617,-0.24454 -7.70117,-0.30664 -1.3679,-0.13994 -45.59243,-1.77254 -54.86523,-2.02539 -2.9445,-0.0803 -4.39049,-0.1928 -4.43945,-0.34375 -0.0817,-0.25145 -0.74171,-12.07168 -1.19141,-21.34375 -0.9491,-19.56795 -1.76942,-45.00574 -2.29492,-71.17188 -0.1106,-5.5055 -0.25577,-12.01304 -0.32227,-14.46289 -0.0982,-3.61941 -0.0704,-4.47056 0.14649,-4.53906 0.1469,-0.0463 6.88179,-0.23705 14.96679,-0.42383 39.5495,-0.91352 65.16697,-1.7298 71.70117,-2.28515 1.43,-0.12156 3.99422,-0.304 5.69922,-0.4043 1.705,-0.1003 9.94078,-0.63229 18.30078,-1.18164 21.8942,-1.43924 28.82026,-1.69564 42.18946,-1.57032 7.4137,0.0695 12.12065,0.20163 14.41015,0.40626 4.606,0.41202 8.918,0.60991 9.67578,0.44335 0.3433,-0.0755 0.625,-0.2591 0.625,-0.40625 0,-0.56696 -2.20126,-1.84942 -5.35156,-3.12109 -0.2475,-0.0999 -0.65092,-0.26604 -0.89844,-0.36914 -0.84719,-0.35236 -5.54297,-1.72637 -7.95117,-2.32617 -3.1671,-0.78879 -12.41171,-2.36231 -15.79883,-2.68946 -1.15498,-0.11151 -2.77656,-0.29495 -3.60156,-0.40624 -2.5827,-0.34857 -14.44933,-1.16351 -20.29883,-1.39454 -3.08,-0.12152 -9.87375,-0.28558 -15.09765,-0.36328 l -15.60156,-0.29101 c -5.88317,0.20409 -13.78919,0.0564 -37.9004,-0.74219 -6.81999,-0.22582 -15.91117,-0.50007 -20.20117,-0.60938 -4.29,-0.10951 -12.12039,-0.33198 -17.40039,-0.49414 -5.28,-0.16236 -11.45781,-0.29778 -13.72851,-0.30078 -3.5769,-0.005 -4.1449,-0.048 -4.25,-0.32226 -0.0668,-0.17418 -0.1206,-2.0438 -0.1211,-4.1543 -0.002,-7.4088 -0.60232,-32.99687 -1.10742,-47.18164 -1.0053,-28.233204 -2.37977,-45.394664 -4.10547,-51.277344 -0.4093,-1.39519 -0.78374,-1.894672 -1.27734,-1.705078 -1.1309,0.434429 -2.57185,8.931224 -3.90625,23.052734 -1.8017,19.06605 -4.79353,61.035958 -5.52735,77.515628 -0.0745,1.67187 -0.19954,3.14143 -0.27734,3.26758 -0.1434,0.23222 -9.87271,0.0906 -28.29883,-0.41407 -9.83404,-0.26947 -36.5512,-0.705 -76.69922,-1.25195 l -32.09961,-0.4375 -0.0508,-1.50195 c -2.30098,-68.567716 -4.6193,-99.065059 -8.30664,-109.296879 -0.76276,-2.11651 -1.91566,-3.416015 -3.0332,-3.416015 z M 317.74219,179.22852 c 0.98204,-0.001 1.54978,0.006 1.56445,0.0234 0.0681,0.0825 0.0568,1.54721 -0.0254,3.25391 -0.4386,9.1105 -1.01736,25.16322 -1.41406,39.23828 -0.2765,9.8088 -0.35098,50.93567 -0.10938,60.61133 0.099,3.96556 0.0863,6.25586 -0.0351,6.25586 -0.1054,0 -0.53347,-0.0718 -1.04493,-0.01 -0.9534,0.0615 -1.92617,-0.0176 -3.86523,0.0957 -9.83712,0.22964 -17.61752,0.18562 -24.41602,0.13281 -1.67682,0.006 -7.15269,-0.13665 -36.19336,-1.01953 -3.96,-0.12052 -11.29578,-0.3024 -16.30078,-0.4043 -5.005,-0.10191 -16.39078,-0.36416 -25.30078,-0.58398 -8.91,-0.22002 -18.09815,-0.4023 -20.41797,-0.4043 l -4.21679,-0.004 -0.12891,-19.37109 c -0.12228,-18.46484 -0.29686,-29.72592 -0.73242,-47.29688 -0.10702,-7.98184 -0.76095,-15.84654 -0.95508,-23.75586 l -0.17773,-7.27734 c -0.0268,-1.09251 -0.1715,-6.96488 -0.11328,-7.875 0.0501,-0.78271 2.73578,-0.34989 3.81445,-0.34961 1.38308,3.6e-4 4.46679,0 4.46679,0 h 3.38477 c 1.28446,0 3.33679,0.0236 14.67773,0.0176 10.6553,-0.006 38.3339,-0.25938 56.19922,-0.51563 l 9.59961,-0.13867 c 6.88806,-0.007 0.86444,0.0299 7.54688,-0.0586 0.12796,-0.12805 27.31909,-0.55194 34.19336,-0.56055 z"
       inkscape:connector-curvature="0"
       sodipodi:nodetypes="cccccccssaaacccccccccccccssccccccccccccccscccsscssccsscscccccccsccccccccscccccccccccsccccccccccccccccccccccccccscsccsccccccccccccccccccccccccccccccccscccccccccccccscscccccc" />
  </g>
</svg>
